<?xml version="1.0" encoding="iso-8859-1"?>
<!-- Generator: Adobe Illustrator 20.1.0, SVG Export Plug-In . SVG Version: 6.00 Build 0)  -->
<svg version="1.1" id="Bible-Book" xmlns="http://www.w3.org/2000/svg" xmlns:xlink="http://www.w3.org/1999/xlink" x="0px" y="0px"
	 viewBox="0 0 27 32" style="enable-background:new 0 0 27 32;" xml:space="preserve">
<g>
	<path d="M26,0H1C0.448,0,0,0.448,0,1v30c0,0.552,0.448,1,1,1h25c0.552,0,1-0.448,1-1V1C27,0.448,26.552,0,26,0z M2,2h3v28H2V2z
		 M25,30H7V2h18V30z"/>
	<path d="M10,14h3v7c0,0.552,0.448,1,1,1h4c0.552,0,1-0.448,1-1v-7h3c0.552,0,1-0.448,1-1V9c0-0.552-0.448-1-1-1h-3V5
		c0-0.552-0.448-1-1-1h-4c-0.552,0-1,0.448-1,1v3h-3C9.448,8,9,8.448,9,9v4C9,13.552,9.448,14,10,14z M11,10h3c0.552,0,1-0.448,1-1
		V6h2v3c0,0.552,0.448,1,1,1h3v2h-3c-0.552,0-1,0.448-1,1v7h-2v-7c0-0.552-0.448-1-1-1h-3V10z"/>
	<rect x="21" y="26" width="2" height="2"/>
	<rect x="18" y="26" width="2" height="2"/>
	<rect x="9" y="26" width="4" height="2"/>
</g>
</svg>
