<?xml version="1.0" encoding="UTF-8"?>
<!DOCTYPE svg PUBLIC "-//W3C//DTD SVG 1.1//EN" "http://www.w3.org/Graphics/SVG/1.1/DTD/svg11.dtd">
<!-- Creator: CorelDRAW -->
<svg xmlns="http://www.w3.org/2000/svg" xml:space="preserve" width="6.82666in" height="6.82666in" style="shape-rendering:geometricPrecision; text-rendering:geometricPrecision; image-rendering:optimizeQuality; fill-rule:evenodd; clip-rule:evenodd"
viewBox="0 0 6.82666 6.82666"
 xmlns:xlink="http://www.w3.org/1999/xlink">
 <defs>
  <style type="text/css">
   <![CDATA[
    .fil2 {fill:none}
    .fil0 {fill:#424242}
    .fil1 {fill:#64B5F6}
   ]]>
  </style>
 </defs>
 <g id="Layer_x0020_1">
  <metadata id="CorelCorpID_0Corel-Layer"/>
  <path class="fil0" d="M5.25037 1.793l-3.20424 0c-0.258409,0 -0.469839,-0.211421 -0.469839,-0.469835l0 0c0,-0.258406 0.211429,-0.469835 0.469839,-0.469835l3.20424 0 0 0.213331 -3.20424 0c-0.140654,0 -0.256508,0.11585 -0.256508,0.256504 0,0.140657 0.11585,0.256504 0.256508,0.256504l3.20424 0 0 0.213331z"/>
  <path class="fil0" d="M2.15175 1.89967l0 4.07367 3.09862 0 0 -4.07367 -3.09862 0zm0.437858 1.71765l0.21615 0 0.083437 0.32348 0.0830669 -0.32348 0.215406 0 0 0.531705 -0.134193 0 0 -0.405433 -0.104114 0.405433 -0.121445 0 -0.10374 -0.405433 0 0.405433 -0.134567 0 0 -0.531705zm1.02998 0.443933l-0.187177 0 -0.025752 0.0877717 -0.167866 0 0.199807 -0.531705 0.179134 0 0.199929 0.531705 -0.171953 0 -0.026122 -0.0877717zm-0.0344134 -0.115008l-0.0588031 -0.191142 -0.0584331 0.191142 0.117236 0zm0.196587 -0.328925l0.499398 0 0 0.131346 -0.167622 0 0 0.400358 -0.16428 0 0 -0.400358 -0.167496 0 0 -0.131346zm0.574417 0l0.164276 0 0 0.186063 0.17963 0 0 -0.186063 0.16502 0 0 0.531705 -0.16502 0 0 -0.215035 -0.17963 0 0 0.215035 -0.164276 0 0 -0.531705z"/>
  <path class="fil1" d="M2.04509 5.97333l-0.0155118 0c-0.249307,0 -0.45328,-0.277555 -0.45328,-0.616803l0 -3.70011c0.104516,0.146736 0.27587,0.242902 0.468791,0.243248l0 4.07367z"/>
 </g>
 <rect class="fil2" width="6.82666" height="6.82666"/>
</svg>
